<svg xmlns="http://www.w3.org/2000/svg" viewBox="0 0 331.64 205.53"><defs><style>.cls-1{fill:#d86100;}.cls-2{fill:#fd9744;}.cls-3{fill:#de843b;stroke:#d86100;stroke-miterlimit:10;stroke-width:9px;}</style></defs><title>Asset 6</title><g id="Layer_2" data-name="Layer 2"><g id="Layer_1-2" data-name="Layer 1"><path class="cls-1" d="M170.8,21.87"/><rect class="cls-2" y="28.31" width="331.64" height="158.22"/><circle class="cls-3" cx="165.82" cy="107.42" r="50"/><g id="s9djOs.tif"><path class="cls-1" d="M153.14,205.53a1.68,1.68,0,0,1,0-.5q2.79-7.3,5.6-14.59c.14-.37.11-.56-.24-.79q-6.27-4.08-12.53-8.2c-.15-.1-.32-.17-.46-.27a1.16,1.16,0,0,1-.2-.24.93.93,0,0,1,.3-.09l4.52.29,4.83.32c2.06.13,4.12.24,6.17.39.39,0,.51-.11.59-.46q1.92-7.55,3.86-15.1a1.15,1.15,0,0,1,.25-.5c1.48,5.31,2.8,10.65,4.2,16l16.19-.93.06.19-13.67,9,1.24,3.26,4.5,11.84a2.35,2.35,0,0,1,.08.39h-.27a3.19,3.19,0,0,0-.31-.35l-10.56-8.89-1.44-1.21-12.63,10.46Z"/></g><path class="cls-1" d="M324.84,69c-6.61,2.33-13.6,5.42-20.91,7.19-8.19,2-16.67,2.78-25,4-11.58,1.75-23.27,3.13-33.69,9.1A26.28,26.28,0,0,0,231.84,107c9.51-7.31,19.73-9.73,30.23-11.34,8.36-1.28,16.75-2.43,25.08-3.84,9.81-1.66,19.54-3.69,27.95-9.51,5.88-4.08,9.24-9.07,9.73-13.27"/><path class="cls-1" d="M312,91.41c-7.11,2.12-14.08,4.87-21.32,6.21-8.93,1.66-18.09,2.08-27.14,3.18-9.4,1.14-18.72,2.66-26.73,8.29a21.77,21.77,0,0,0-9,12.72c5.8-2.17,11.38-4.93,17.29-6.31,7.09-1.66,14.5-1.94,21.7-3.2,10.06-1.75,20.22-3.26,30-6A21.71,21.71,0,0,0,312,91.41Z"/><path class="cls-1" d="M297.93,111.64c-9.16,5.79-18.44,6.15-27.72,6.85-9.71.73-19.5,1.29-29,3.08-8.17,1.53-14.12,6.64-16.24,14.79,4.78-1.66,9.38-3.84,14.23-4.79,5.71-1.11,11.65-1,17.46-1.7,9.17-1.13,18.43-2,27.41-4C290.79,124.4,295.48,119.58,297.93,111.64Z"/><path class="cls-1" d="M278.64,134.21c-6.47.66-12.84,1.51-19.24,1.91-7.77.49-15.61.18-23.33,1-7,.77-12.28,4.49-14.12,10.95,6.18-1,12.42-2.44,18.73-3,7.11-.58,14.3-.1,21.44-.52C271.37,144.08,277.12,140,278.64,134.21Z"/><path class="cls-1" d="M324.84,69c-.49,4.19-3.85,9.19-9.73,13.27-8.4,5.83-18.14,7.85-27.95,9.51-8.34,1.41-16.72,2.56-25.08,3.84-10.5,1.61-20.72,4-30.23,11.34A26.28,26.28,0,0,1,245.2,89.32c10.42-6,22.11-7.35,33.69-9.1,8.36-1.26,16.84-2.06,25-4,7.31-1.76,14.3-4.86,20.91-7.19"/><path class="cls-1" d="M312,91.41a21.71,21.71,0,0,1-15.16,14.88c-9.8,2.74-20,4.25-30,6-7.2,1.26-14.61,1.54-21.7,3.2-5.91,1.38-11.49,4.14-17.29,6.31a21.77,21.77,0,0,1,9-12.72c8-5.63,17.33-7.15,26.73-8.29,9-1.1,18.2-1.52,27.14-3.18C297.94,96.28,304.92,93.54,312,91.41Z"/><path class="cls-1" d="M297.93,111.64c-2.44,7.94-7.14,12.76-13.9,14.26-9,2-18.25,2.84-27.41,4-5.8.71-11.75.59-17.46,1.7-4.84.94-9.44,3.13-14.23,4.79,2.11-8.15,8.07-13.26,16.24-14.79,9.54-1.78,19.33-2.34,29-3.08C279.48,117.79,288.76,117.43,297.93,111.64Z"/><path class="cls-1" d="M278.64,134.21c-1.52,5.8-7.28,9.87-16.53,10.41-7.13.42-14.32-.06-21.44.52-6.31.52-12.55,1.95-18.73,3,1.84-6.46,7.14-10.17,14.12-10.95,7.72-.85,15.56-.54,23.33-1C265.8,135.72,272.17,134.87,278.64,134.21Z"/><path class="cls-1" d="M6.43,70c.48,4.06,3.73,8.91,9.43,12.86C24,88.5,33.44,90.46,42.95,92.07,51,93.44,59.16,94.56,67.26,95.8c10.18,1.56,20.08,3.91,29.3,11a25.47,25.47,0,0,0-12.94-17.1C73.52,83.91,62.19,82.57,51,80.88c-8.11-1.22-16.32-2-24.26-3.91-7.08-1.71-13.86-4.71-20.26-7"/><path class="cls-1" d="M33.55,106.15c9.5,2.66,19.35,4.12,29.09,5.82,7,1.22,14.16,1.49,21,3.1,5.73,1.34,11.14,4,16.76,6.11a21.1,21.1,0,0,0-8.7-12.33c-7.76-5.46-16.8-6.93-25.9-8-8.77-1.06-17.64-1.47-26.3-3.08-7-1.3-13.78-4-20.66-6A21,21,0,0,0,33.55,106.15Z"/><path class="cls-1" d="M46,125.15c8.71,1.94,17.68,2.75,26.57,3.84,5.63.69,11.38.57,16.92,1.65,4.69.91,9.15,3,13.79,4.64-2-7.9-7.82-12.85-15.74-14.33-9.25-1.73-18.74-2.27-28.15-3-9-.68-18-1-26.86-6.64C34.88,119,39.43,123.69,46,125.15Z"/><path class="cls-1" d="M67.22,143.29c6.91.41,13.88-.06,20.78.5,6.12.5,12.16,1.89,18.15,2.87-1.79-6.26-6.92-9.86-13.69-10.61-7.48-.83-15.08-.52-22.61-1-6.2-.39-12.37-1.21-18.65-1.85C52.68,138.83,58.26,142.77,67.22,143.29Z"/><path class="cls-1" d="M6.43,70c.48,4.06,3.73,8.91,9.43,12.86C24,88.5,33.44,90.46,42.95,92.07,51,93.44,59.16,94.56,67.26,95.8c10.18,1.56,20.08,3.91,29.3,11a25.47,25.47,0,0,0-12.94-17.1C73.52,83.91,62.19,82.57,51,80.88c-8.11-1.22-16.32-2-24.26-3.91-7.08-1.71-13.86-4.71-20.26-7"/><path class="cls-1" d="M18.85,91.72a21,21,0,0,0,14.69,14.42c9.5,2.66,19.35,4.12,29.09,5.82,7,1.22,14.16,1.49,21,3.1,5.73,1.34,11.14,4,16.76,6.11a21.1,21.1,0,0,0-8.7-12.33c-7.76-5.46-16.8-6.93-25.9-8-8.77-1.06-17.64-1.47-26.3-3.08C32.5,96.44,25.74,93.78,18.85,91.72Z"/><path class="cls-1" d="M32.52,111.33C34.88,119,39.43,123.69,46,125.15c8.71,1.94,17.68,2.75,26.57,3.84,5.63.69,11.38.57,16.92,1.65,4.69.91,9.15,3,13.79,4.64-2-7.9-7.82-12.85-15.74-14.33-9.25-1.73-18.74-2.27-28.15-3C50.39,117.28,41.4,116.94,32.52,111.33Z"/><path class="cls-1" d="M51.2,133.2c1.47,5.62,7.05,9.56,16,10.09,6.91.41,13.88-.06,20.78.5,6.12.5,12.16,1.89,18.15,2.87-1.79-6.26-6.92-9.86-13.69-10.61-7.48-.83-15.08-.52-22.61-1C63.65,134.66,57.48,133.84,51.2,133.2Z"/><path class="cls-1" d="M154.6,40.2h20.82V37H154.6Z"/><path class="cls-1" d="M151.27,9.58l9.24-5.95c1.76-1.13,3.53-2.25,5.27-3.41a.81.81,0,0,1,1-.06q7.09,4.6,14.2,9.17c.11.07.21.16.32.24-2.78,2.67-3.5,5.16-2.26,7.81s3.63,3.87,6.94,3.55l-1.59,4.13c-.79,2.05-1.61,4.1-2.37,6.16a.92.92,0,0,1-1,.69q-14.7,0-29.4,0c-.44,0-.76,0-1-.55-1.26-3.34-2.57-6.66-3.85-10a2.51,2.51,0,0,1-.08-.41c3.15.3,5.59-.79,6.84-3.71S153.88,11.67,151.27,9.58Zm15.07-4-8.4,10.91a3.66,3.66,0,0,0,.36.32c2.54,1.67,5.07,3.35,7.64,5a1.07,1.07,0,0,0,.94-.07c2.44-1.57,4.86-3.17,7.28-4.77.2-.13.38-.29.59-.46Z"/><path class="cls-1" d="M151,40.2V35.5H181.7v4.7Z"/></g></g></svg>