<svg xmlns="http://www.w3.org/2000/svg" viewBox="0 0 441.31 230.33"><defs><style>.cls-1{fill:#b9cccc;}.cls-2{fill:#9db3b3;stroke:#638080;stroke-miterlimit:10;stroke-width:9px;}.cls-3{fill:#638080;}.cls-4{fill:gray;}</style></defs><title>Asset 2</title><g id="Layer_2" data-name="Layer 2"><g id="Layer_1-2" data-name="Layer 1"><rect class="cls-1" x="53.55" y="61.34" width="331.64" height="158.22"/><circle class="cls-2" cx="219.38" cy="140.45" r="50"/><g id="fxmlUo.tif"><path class="cls-3" d="M201.17,219.94c.49-.26.82-.42,1.13-.61,5.63-3.32,11.26-6.61,16.87-10a2.61,2.61,0,0,1,3,0c5.6,3.36,11.23,6.66,16.86,10,.31.18.63.35,1.09.6,0-2.43,0-4.67,0-6.91a1.43,1.43,0,0,0-.81-1.45q-8.94-5.23-17.83-10.54a1.38,1.38,0,0,0-1.64,0c-5.55,3.31-11.09,6.65-16.72,9.82-1.54.87-2.19,1.79-2,3.56S201.17,218,201.17,219.94Zm0,10.37c.47-.25.79-.42,1.1-.6,5.62-3.32,11.25-6.63,16.85-10a2.7,2.7,0,0,1,3.12,0c5.6,3.36,11.23,6.67,16.85,10l1,.59c0-2.59,0-5,0-7.35a1.22,1.22,0,0,0-.55-.85q-9.16-5.47-18.35-10.86a1.28,1.28,0,0,0-1.09,0q-9.2,5.39-18.36,10.84a1.15,1.15,0,0,0-.56.74C201.16,225.29,201.18,227.73,201.18,230.31Z"/><path class="cls-3" d="M201.17,219.94c0-1.95.14-3.75,0-5.52s.47-2.69,2-3.56c5.63-3.17,11.16-6.51,16.72-9.82a1.38,1.38,0,0,1,1.64,0q8.9,5.3,17.83,10.54a1.43,1.43,0,0,1,.81,1.45c0,2.24,0,4.48,0,6.91-.47-.26-.79-.42-1.09-.6-5.62-3.32-11.26-6.63-16.86-10a2.61,2.61,0,0,0-3,0c-5.6,3.35-11.24,6.65-16.87,10C202,219.52,201.67,219.68,201.17,219.94Z"/><path class="cls-3" d="M201.18,230.31c0-2.58,0-5,0-7.46a1.15,1.15,0,0,1,.56-.74q9.16-5.45,18.36-10.84a1.28,1.28,0,0,1,1.09,0q9.2,5.39,18.35,10.86a1.22,1.22,0,0,1,.55.85c0,2.38,0,4.76,0,7.35l-1-.59c-5.62-3.33-11.25-6.64-16.85-10a2.7,2.7,0,0,0-3.12,0c-5.6,3.36-11.23,6.67-16.85,10C202,229.89,201.64,230.06,201.18,230.31Z"/></g><g id="H9WMDd.tif"><path class="cls-3" d="M441.31,1.48l-.77-.83C434.66,8,428.92,15.79,422.85,22.73c-22.3,25.49-47.22,40.86-73.15,52.16q-18.75,8.17-37.55,16c-9.53,4-16.34,12-18.77,29.39-1.7,12.17-4.94,23.74-7.49,35.58a5.2,5.2,0,0,0,1.64-2.34c5.14-12.57,12.27-20.33,21.08-23.5,7.57-2.73,15.25-4.62,22.85-7.17,14-4.7,28.3-8.06,42-14.78C396.7,96.65,414.08,71,427.82,38.29,432.76,26.54,436.84,13.78,441.31,1.48ZM275.22,193c6.63-9.82,14.46-13.07,23-12.53,7.45.47,14.89,1.3,22.34,1.78,11.32.73,22.67,2.18,33.9-1.79,16.87-6,30.91-20.5,43.13-40.35,3.72-6.05,7.07-12.77,10.58-19.18l-.57-1.11L404.76,122c-4.34,3.29-8.61,6.9-13,9.82-21.61,14.25-44.3,17.91-67.26,19-9.33.44-18.67,1.17-28,2.23-3.24.37-6.66,1.74-8.64,6.76C283.54,170.73,279.42,181.9,275.22,193Zm-3.89,20.25c3.94-3.77,9-4.12,14.13-1.6,2.77,1.35,5.52,2.81,8.31,3.95,9.25,3.78,18.41,9.21,27.8,10.76,15.79,2.61,29.54-7.89,41.92-23.74a11.77,11.77,0,0,0,.76-2.07c-18.92,8.61-37.31,5.84-55.68-.66-6.42-2.27-12.82-4.81-19.3-6.38-2.58-.62-6.08-.43-7.89,2C277.4,200.89,274.23,207.95,271.33,213.23Z"/><path class="cls-3" d="M441.31,1.48c-4.47,12.3-8.55,25.06-13.49,36.8C414.08,71,396.7,96.65,373.44,108.08c-13.68,6.72-27.95,10.08-42,14.78-7.6,2.55-15.28,4.45-22.85,7.17-8.81,3.17-15.94,10.93-21.08,23.5a5.2,5.2,0,0,1-1.64,2.34c2.55-11.84,5.79-23.41,7.49-35.58,2.43-17.38,9.24-25.39,18.77-29.39Q331,83,349.71,74.89c25.93-11.3,50.85-26.66,73.15-52.16C428.92,15.79,434.66,8,440.54.65Z"/><path class="cls-3" d="M275.22,193c4.2-11.08,8.32-22.25,12.63-33.2,2-5,5.39-6.39,8.64-6.76,9.31-1.06,18.65-1.79,28-2.23,23-1.09,45.65-4.75,67.26-19,4.43-2.92,8.69-6.53,13-9.82l2.84-2.17.57,1.11c-3.52,6.41-6.86,13.13-10.58,19.18-12.21,19.85-26.26,34.38-43.13,40.35-11.23,4-22.58,2.52-33.9,1.79-7.45-.48-14.89-1.31-22.34-1.78C289.68,179.91,281.85,183.16,275.22,193Z"/><path class="cls-3" d="M271.33,213.23c2.9-5.29,6.07-12.34,10-17.71,1.81-2.45,5.31-2.64,7.89-2,6.48,1.56,12.88,4.1,19.3,6.38,18.37,6.5,36.76,9.28,55.68.66a11.77,11.77,0,0,1-.76,2.07c-12.38,15.84-26.13,26.35-41.92,23.74-9.39-1.55-18.55-7-27.8-10.76-2.8-1.14-5.55-2.6-8.31-3.95C280.29,209.11,275.27,209.46,271.33,213.23Z"/></g><g id="H9WMDd.tif-2" data-name="H9WMDd.tif"><path class="cls-3" d="M13.49,37.63C27.23,70.32,44.61,96,67.87,107.42c13.68,6.72,27.95,10.08,42,14.78,7.6,2.55,15.28,4.45,22.85,7.17,8.81,3.17,15.94,10.93,21.08,23.5a5.2,5.2,0,0,0,1.64,2.34c-2.55-11.84-5.79-23.41-7.49-35.58-2.43-17.38-9.24-25.39-18.77-29.39q-18.79-7.88-37.55-16C65.67,62.94,40.75,47.57,18.46,22.07,12.39,15.14,6.65,7.38.77,0L0,.83C4.47,13.13,8.55,25.88,13.49,37.63Zm140,121.49c-2-5-5.39-6.39-8.64-6.76-9.31-1.06-18.65-1.79-28-2.23-23-1.09-45.65-4.75-67.26-19-4.43-2.92-8.69-6.53-13-9.82l-2.84-2.17-.57,1.11c3.52,6.41,6.86,13.13,10.58,19.18C55.93,159.27,70,173.81,86.85,179.78c11.23,4,22.58,2.52,33.9,1.79,7.45-.48,14.89-1.31,22.34-1.78,8.55-.54,16.37,2.71,23,12.53C161.89,181.25,157.77,170.08,153.46,159.12Zm6.48,35.74c-1.81-2.45-5.31-2.64-7.89-2-6.48,1.56-12.88,4.1-19.3,6.38-18.37,6.5-36.76,9.28-55.68.66a11.77,11.77,0,0,0,.76,2.07c12.38,15.84,26.13,26.35,41.92,23.74,9.39-1.55,18.55-7,27.8-10.76,2.8-1.14,5.55-2.6,8.31-3.95,5.17-2.52,10.19-2.17,14.13,1.6C167.08,207.29,163.91,200.24,159.94,194.87Z"/><path class="cls-3" d="M0,.83c4.47,12.3,8.55,25.06,13.49,36.8C27.23,70.32,44.61,96,67.87,107.42c13.68,6.72,27.95,10.08,42,14.78,7.6,2.55,15.28,4.45,22.85,7.17,8.81,3.17,15.94,10.93,21.08,23.5a5.2,5.2,0,0,0,1.64,2.34c-2.55-11.84-5.79-23.41-7.49-35.58-2.43-17.38-9.24-25.39-18.77-29.39q-18.79-7.88-37.55-16C65.67,62.94,40.75,47.57,18.46,22.07,12.39,15.14,6.65,7.38.77,0Z"/><path class="cls-3" d="M166.09,192.33c-4.2-11.08-8.32-22.25-12.63-33.2-2-5-5.39-6.39-8.64-6.76-9.31-1.06-18.65-1.79-28-2.23-23-1.09-45.65-4.75-67.26-19-4.43-2.92-8.69-6.53-13-9.82l-2.84-2.17-.57,1.11c3.52,6.41,6.86,13.13,10.58,19.18C55.93,159.27,70,173.81,86.85,179.78c11.23,4,22.58,2.52,33.9,1.79,7.45-.48,14.89-1.31,22.34-1.78C151.64,179.26,159.46,182.5,166.09,192.33Z"/><path class="cls-3" d="M170,212.58c-2.9-5.29-6.07-12.34-10-17.71-1.81-2.45-5.31-2.64-7.89-2-6.48,1.56-12.88,4.1-19.3,6.38-18.37,6.5-36.76,9.28-55.68.66a11.77,11.77,0,0,0,.76,2.07c12.38,15.84,26.13,26.35,41.92,23.74,9.39-1.55,18.55-7,27.8-10.76,2.8-1.14,5.55-2.6,8.31-3.95C161,208.46,166,208.81,170,212.58Z"/></g><path class="cls-4" d="M202.33,33.75c2-1.5,2.59-3.09,1.87-4.78a3.6,3.6,0,0,0-3.92-2.12,3.49,3.49,0,0,0-2.93,3.46c0,2,1.08,3.08,3.79,3.77,0,.13.07.27.1.42Q203.7,47.76,206.17,61q1.67,9,3.32,18c.11.6.29,1,1,1q10,0,20,0c.63,0,.9-.22,1-.85.19-1.23.46-2.46.69-3.68Q236,55.5,239.82,35.59c.2-1.08.49-1.66,1.67-1.91a3.39,3.39,0,0,0,2.4-4,3.61,3.61,0,0,0-3.76-2.87,3.51,3.51,0,0,0-3.27,3.39,4,4,0,0,0,2.08,3.58l-10.4,19.85-.28,0-7.1-26.73c2.34-1.52,3-2.84,2.51-4.68a3.55,3.55,0,0,0-3.1-2.47A3.4,3.4,0,0,0,217,21.88c-.84,2.37.35,3.87,2.36,4.9l-6.72,26.54h-.3Z"/><path class="cls-3" d="M202.33,33.75l10,19.57h.3l6.72-26.54c-2-1-3.2-2.53-2.36-4.9a3.4,3.4,0,0,1,3.62-2.22,3.55,3.55,0,0,1,3.1,2.47c.52,1.85-.17,3.16-2.51,4.68l7.1,26.73.28,0,10.4-19.85a4,4,0,0,1-2.08-3.58,3.51,3.51,0,0,1,3.27-3.39,3.61,3.61,0,0,1,3.76,2.87,3.39,3.39,0,0,1-2.4,4c-1.19.25-1.47.83-1.67,1.91q-3.77,19.92-7.64,39.82c-.24,1.23-.5,2.45-.69,3.68-.1.63-.37.85-1,.85q-10,0-20,0c-.74,0-.93-.36-1-1q-1.65-9-3.32-18-2.46-13.25-4.93-26.51c0-.15-.07-.3-.1-.42-2.71-.69-3.82-1.81-3.79-3.77a3.49,3.49,0,0,1,2.93-3.46A3.6,3.6,0,0,1,204.2,29C204.92,30.66,204.32,32.25,202.33,33.75Z"/></g></g></svg>