<svg xmlns="http://www.w3.org/2000/svg" viewBox="0 0 710.38 244.94"><defs><style>.cls-1{fill:#d8ebf5;}.cls-2{fill:#99c5dc;}.cls-3{fill:#b7d8e8;stroke:#99c5dc;stroke-miterlimit:10;stroke-width:9px;}</style></defs><title>Asset 1</title><g id="Layer_2" data-name="Layer 2"><g id="Layer_1-2" data-name="Layer 1"><rect class="cls-1" x="188.47" y="65.62" width="331.64" height="158.22"/><g id="H9WMDd.tif"><path class="cls-2" d="M289.53,156.2c-.76-2.1-1.26-3.65-1.87-5.16-5.3-13.14-11-26.16-15.77-39.46-2.74-7.7-8.05-12.73-15.94-15.63a210.34,210.34,0,0,0-23.69-7.36c-28.59-6.83-57.45-12.79-85.88-20.09C94.29,55.12,46,34.85,4.4,3.14,3,2,1.47,1,0,0A17.05,17.05,0,0,0,2.29,6.29a219.33,219.33,0,0,0,32,44.39c29.46,31.73,65.54,54.13,111.58,62,28.35,4.85,56.8,9.22,85.18,13.88,16.57,2.72,33.09,5.78,45.76,16.85C281.2,147.23,285,151.57,289.53,156.2ZM710.38,1.13,708.95.3c-11,7.38-21.77,15.14-33.14,22.07-41.78,25.49-88.46,40.86-137,52.16q-35.13,8.17-70.35,16c-17.86,4-30.61,12-35.17,29.39-3.19,12.17-9.25,23.74-14,35.58a6.82,6.82,0,0,0,3.07-2.34c9.64-12.57,23-20.33,39.49-23.5,14.19-2.73,28.58-4.62,42.81-7.17,26.28-4.7,53-8.06,78.64-14.78C626.8,96.3,659.37,70.62,685.11,37.94,694.36,26.19,702,13.43,710.38,1.13ZM309.47,192.64c-6.75-9.54-13.94-18.86-20.11-28.69-4.63-7.37-11.49-10.49-20.25-11.46-3.69-.41-7.39-.92-11.1-1.06-26.42-1-52.89-1.37-79.27-3C142.25,146.18,107,139,73.8,124.72c-4.1-1.77-8.18-3.55-12.28-5.33A7.44,7.44,0,0,0,64,123.87c10.25,9.17,19.84,19.07,31,27.25,28.57,20.94,61.25,32.55,98.78,31.43,22.53-.67,45.07-1.17,67.57-2.26C279.08,179.43,295.54,181.51,309.47,192.64Zm89.75,0c12.43-9.82,27.08-13.07,43.1-12.53,14,.47,27.9,1.3,41.86,1.78,21.21.73,42.47,2.18,63.51-1.79,31.6-6,57.92-20.5,80.8-40.35,7-6.05,13.24-12.77,19.83-19.18l-1.06-1.11-5.33,2.17c-8.13,3.29-16.12,6.9-24.42,9.82-40.49,14.25-83,17.91-126,19q-26.23.66-52.42,2.23c-6.08.37-12.48,1.74-16.18,6.76C414.8,170.38,407.08,181.55,399.21,192.63Zm-7.3,20.25c7.38-3.77,16.79-4.12,26.47-1.6,5.18,1.35,10.33,2.81,15.57,3.95C451.28,219,468.45,224.44,486,226c29.58,2.61,55.35-7.89,78.53-23.74.44-.3.62-.89,1.42-2.07-35.44,8.61-69.9,5.84-104.31-.66-12-2.27-24-4.81-36.15-6.38-4.83-.62-11.39-.43-14.79,2C403.29,200.54,397.36,207.6,391.92,212.88Zm-71.75,1.92c-6.56-6.09-12.28-11-17.48-16.33-5.43-5.55-12-6.83-19.67-5.49-11.13,2-22.27,3.89-33.36,6-26.87,5.19-53.91,8.51-81.45,5.52-8.36-.91-16.62-2.45-24.93-3.7a40.51,40.51,0,0,0,8.46,6.44c24.06,14.12,50.05,22.69,79.12,18,17.32-2.78,34.22-7.72,51.19-12.05C294.6,210,306.94,207.12,320.17,214.8Z"/><path class="cls-2" d="M289.53,156.2c-4.56-4.63-8.33-9-12.69-12.78-12.67-11.07-29.19-14.13-45.76-16.85-28.39-4.66-56.84-9-85.18-13.88-46-7.88-82.11-30.28-111.58-62a219.33,219.33,0,0,1-32-44.39A17.05,17.05,0,0,1,0,0C1.47,1,3,2,4.4,3.14c41.6,31.72,89.89,52,142,65.37,28.43,7.3,57.29,13.25,85.88,20.09A210.34,210.34,0,0,1,256,95.95c7.89,2.91,13.2,7.93,15.94,15.63,4.74,13.3,10.47,26.32,15.77,39.46C288.27,152.55,288.77,154.1,289.53,156.2Z"/><path class="cls-2" d="M710.38,1.13c-8.38,12.3-16,25.06-25.28,36.8C659.37,70.62,626.8,96.3,583.24,107.73c-25.62,6.72-52.36,10.08-78.64,14.78-14.24,2.55-28.62,4.45-42.81,7.17-16.5,3.17-29.86,10.93-39.49,23.5a6.82,6.82,0,0,1-3.07,2.34c4.78-11.84,10.84-23.41,14-35.58,4.55-17.38,17.31-25.39,35.17-29.39q35.21-7.88,70.35-16c48.58-11.3,95.26-26.66,137-52.16C687.18,15.44,697.92,7.68,708.95.3Z"/><path class="cls-2" d="M309.47,192.64c-13.93-11.14-30.39-13.22-48.15-12.36-22.5,1.09-45,1.59-67.57,2.26-37.54,1.12-70.22-10.49-98.78-31.43C83.79,142.94,74.21,133,64,123.87a7.44,7.44,0,0,1-2.44-4.48c4.09,1.78,8.18,3.57,12.28,5.33C107,139,142.25,146.18,178.74,148.43c26.37,1.62,52.84,2,79.27,3,3.71.14,7.41.66,11.1,1.06,8.76,1,15.62,4.08,20.25,11.46C295.53,173.78,302.72,183.1,309.47,192.64Z"/><path class="cls-2" d="M399.21,192.63c7.87-11.08,15.59-22.25,23.67-33.2,3.7-5,10.1-6.39,16.18-6.76q26.17-1.59,52.42-2.23c43-1.09,85.52-4.75,126-19,8.3-2.92,16.29-6.53,24.42-9.82l5.33-2.17,1.06,1.11c-6.59,6.41-12.85,13.13-19.83,19.18-22.88,19.85-49.2,34.38-80.8,40.35-21,4-42.3,2.52-63.51,1.79-14-.48-27.9-1.31-41.86-1.78C426.29,179.56,411.64,182.81,399.21,192.63Z"/><path class="cls-2" d="M391.92,212.88c5.44-5.29,11.37-12.34,18.82-17.71,3.4-2.45,10-2.64,14.79-2,12.14,1.56,24.13,4.1,36.15,6.38,34.41,6.5,68.87,9.28,104.31.66-.79,1.18-1,1.77-1.42,2.07-23.19,15.84-49,26.35-78.53,23.74-17.59-1.55-34.75-7-52.08-10.76-5.24-1.14-10.39-2.6-15.57-3.95C408.7,208.76,399.3,209.11,391.92,212.88Z"/><path class="cls-2" d="M320.17,214.8c-13.23-7.69-25.57-4.77-38.12-1.57-17,4.33-33.88,9.27-51.19,12.05-29.07,4.67-55.07-3.91-79.12-18a40.51,40.51,0,0,1-8.46-6.44c8.31,1.25,16.58,2.8,24.93,3.7,27.54,3,54.57-.33,81.45-5.52,11.09-2.14,22.22-4.07,33.36-6,7.63-1.34,14.24-.06,19.67,5.49C307.89,203.79,313.61,208.71,320.17,214.8Z"/></g><circle class="cls-3" cx="354.29" cy="144.73" r="50"/><path class="cls-2" d="M302,28.37c-.18.34-.27.42-.26.48,4,16.61,8,33.22,12.17,49.81A2.75,2.75,0,0,0,316,80.15c2.17.14,4.35-.13,6.53-.13q35,0,70,0c2,0,2.89-.44,3.35-2.58,3-13.67,6.19-27.29,9.31-40.94.65-2.86,1.23-5.73,2-9.16L381.83,46l-9.66-18.44L354.53,48.65l-17.9-20.88L327.2,46.36Z"/><path class="cls-2" d="M305.54,13.26a9.13,9.13,0,0,0-9.09-9.39,9.31,9.31,0,0,0-9.27,9,9.19,9.19,0,0,0,8.9,9.36A9.08,9.08,0,0,0,305.54,13.26Z"/><path class="cls-2" d="M412.23,21.42A9.12,9.12,0,1,0,403,12.2,9.11,9.11,0,0,0,412.23,21.42Z"/><path class="cls-2" d="M374.47,3.37a9.19,9.19,0,1,0,9.25,9A9.1,9.1,0,0,0,374.47,3.37Z"/><path class="cls-2" d="M334,21.92A9.11,9.11,0,1,0,334,3.7,9,9,0,0,0,324.85,13,9,9,0,0,0,334,21.92Z"/><path class="cls-2" d="M302,28.37l25.19,18,9.43-18.58,17.9,20.88,17.64-21.12L381.83,46l25.34-18.61c-.73,3.43-1.31,6.3-2,9.16-3.11,13.64-6.3,27.27-9.31,40.94-.47,2.13-1.35,2.58-3.35,2.58q-35-.09-70,0c-2.18,0-4.37.27-6.53.13a2.75,2.75,0,0,1-2.06-1.49c-4.12-16.59-8.14-33.2-12.17-49.81C301.74,28.79,301.83,28.71,302,28.37Z"/><path class="cls-2" d="M305.54,13.26a9.08,9.08,0,0,1-9.46,9,9.19,9.19,0,0,1-8.9-9.36,9.31,9.31,0,0,1,9.27-9A9.13,9.13,0,0,1,305.54,13.26Z"/><path class="cls-2" d="M412.23,21.42a9.12,9.12,0,1,1,9.18-9A9.13,9.13,0,0,1,412.23,21.42Z"/><path class="cls-2" d="M374.47,3.37a9.1,9.1,0,0,1,9.25,9,9.18,9.18,0,1,1-9.25-9Z"/><path class="cls-2" d="M334,21.92A9,9,0,0,1,324.85,13a9.19,9.19,0,0,1,18.38-.29A9,9,0,0,1,334,21.92Z"/><g id="fxmlUo.tif"><path class="cls-2" d="M336,223.78c.49-.26.82-.42,1.13-.61,5.63-3.32,11.26-6.61,16.87-10a2.61,2.61,0,0,1,3,0c5.6,3.36,11.23,6.66,16.86,10,.31.18.63.35,1.09.6,0-2.43,0-4.67,0-6.91a1.43,1.43,0,0,0-.81-1.45q-8.94-5.23-17.83-10.54a1.38,1.38,0,0,0-1.64,0c-5.55,3.31-11.09,6.65-16.72,9.82-1.54.87-2.19,1.79-2,3.56S336,221.84,336,223.78Zm0,10.37c.47-.25.79-.42,1.1-.6,5.62-3.32,11.25-6.63,16.85-10a2.7,2.7,0,0,1,3.12,0c5.6,3.36,11.23,6.67,16.85,10l1,.59c0-2.59,0-5,0-7.35a1.22,1.22,0,0,0-.55-.85q-9.16-5.47-18.35-10.86a1.28,1.28,0,0,0-1.09,0q-9.2,5.39-18.36,10.84a1.15,1.15,0,0,0-.56.74C336,229.13,336,231.57,336,234.15Z"/><path class="cls-2" d="M336.09,244.94c0-2.45-.06-4.9,0-7.35a1.21,1.21,0,0,1,.53-.85q9.2-5.49,18.44-10.91a1.26,1.26,0,0,1,1.07,0q9.15,5.38,18.25,10.82a1.33,1.33,0,0,1,.61.9c0,2.45,0,4.9,0,7.35h-.2a7.5,7.5,0,0,0-.77-.6c-5.64-3.35-11.3-6.68-16.93-10.06a2.61,2.61,0,0,0-3,0c-5.63,3.37-11.29,6.7-16.94,10a7.47,7.47,0,0,0-.77.6Z"/><path class="cls-2" d="M336,223.78c0-1.95.14-3.75,0-5.52s.47-2.69,2-3.56c5.63-3.17,11.16-6.51,16.72-9.82a1.38,1.38,0,0,1,1.64,0q8.9,5.3,17.83,10.54a1.43,1.43,0,0,1,.81,1.45c0,2.24,0,4.48,0,6.91-.47-.26-.79-.42-1.09-.6-5.62-3.32-11.26-6.63-16.86-10a2.61,2.61,0,0,0-3,0c-5.6,3.35-11.24,6.65-16.87,10C336.85,223.36,336.52,223.52,336,223.78Z"/><path class="cls-2" d="M336,234.15c0-2.58,0-5,0-7.46a1.15,1.15,0,0,1,.56-.74q9.16-5.45,18.36-10.84a1.28,1.28,0,0,1,1.09,0q9.2,5.39,18.35,10.86a1.22,1.22,0,0,1,.55.85c0,2.38,0,4.76,0,7.35l-1-.59c-5.62-3.33-11.25-6.64-16.85-10a2.7,2.7,0,0,0-3.12,0c-5.6,3.36-11.23,6.67-16.85,10C336.82,233.73,336.5,233.9,336,234.15Z"/></g></g></g></svg>