<svg xmlns="http://www.w3.org/2000/svg" viewBox="0 0 350.87 227.31"><defs><style>.cls-1{fill:#ffd02a;}.cls-2{fill:#c09c21;stroke:#a77d00;stroke-miterlimit:10;stroke-width:9px;}.cls-3{fill:#a77d00;}.cls-4{fill:#fff;}</style></defs><title>Asset 4</title><g id="Layer_2" data-name="Layer 2"><g id="Layer_1-2" data-name="Layer 1"><rect class="cls-1" x="10.23" y="61.69" width="331.64" height="158.22"/><circle class="cls-2" cx="176.05" cy="140.79" r="50"/><g id="fxmlUo.tif"><path class="cls-3" d="M157.85,227.29c.49-.26.82-.42,1.13-.61,5.63-3.32,11.26-6.61,16.87-10a2.61,2.61,0,0,1,3,0c5.6,3.36,11.23,6.66,16.86,10,.31.18.63.35,1.09.6,0-2.43,0-4.67,0-6.91a1.43,1.43,0,0,0-.81-1.45q-8.94-5.23-17.83-10.54a1.38,1.38,0,0,0-1.64,0c-5.55,3.31-11.09,6.65-16.72,9.82-1.54.87-2.19,1.79-2,3.56S157.85,225.34,157.85,227.29Z"/><path class="cls-3" d="M157.85,227.29c0-1.95.14-3.75,0-5.52s.47-2.69,2-3.56c5.63-3.17,11.16-6.51,16.72-9.82a1.38,1.38,0,0,1,1.64,0q8.9,5.3,17.83,10.54a1.43,1.43,0,0,1,.81,1.45c0,2.24,0,4.48,0,6.91-.47-.26-.79-.42-1.09-.6-5.62-3.32-11.26-6.63-16.86-10a2.61,2.61,0,0,0-3,0c-5.6,3.35-11.24,6.65-16.87,10C158.67,226.87,158.34,227,157.85,227.29Z"/></g><g id="H9WMDd.tif"><path class="cls-3" d="M350.87,1.83,350.36,1c-3.94,7.38-7.79,15.14-11.85,22.07-14.94,25.49-31.63,40.86-49,52.16q-12.56,8.17-25.15,16c-6.39,4-10.95,12-12.58,29.39-1.14,12.17-3.31,23.74-5,35.58a5.7,5.7,0,0,0,1.1-2.34c3.45-12.57,8.22-20.33,14.12-23.5,5.07-2.73,10.22-4.62,15.31-7.17,9.4-4.7,19-8.06,28.12-14.78C321,97,332.63,71.32,341.83,38.63,345.14,26.88,347.88,14.13,350.87,1.83ZM239.61,193.33c4.44-9.82,9.68-13.07,15.41-12.53,5,.47,10,1.3,15,1.78,7.58.73,15.18,2.18,22.71-1.79,11.3-6,20.71-20.5,28.89-40.35,2.5-6.05,4.73-12.77,7.09-19.18l-.38-1.11-1.9,2.17c-2.91,3.29-5.77,6.9-8.73,9.82-14.48,14.25-29.68,17.91-45.06,19-6.25.44-12.5,1.17-18.74,2.23-2.17.37-4.46,1.74-5.78,6.76C245.18,171.08,242.42,182.25,239.61,193.33ZM237,213.58c2.64-3.77,6-4.12,9.46-1.6,1.85,1.35,3.69,2.81,5.57,3.95,6.2,3.78,12.33,9.21,18.62,10.76,10.58,2.61,19.79-7.89,28.08-23.74a15.78,15.78,0,0,0,.51-2.07c-12.67,8.61-25,5.84-37.3-.66-4.3-2.27-8.59-4.81-12.93-6.38a4.05,4.05,0,0,0-5.29,2C241.07,201.24,238.95,208.29,237,213.58Z"/><path class="cls-3" d="M350.87,1.83c-3,12.3-5.73,25.06-9,36.8C332.63,71.32,321,97,305.41,108.42c-9.16,6.72-18.72,10.08-28.12,14.78-5.09,2.55-10.23,4.45-15.31,7.17-5.9,3.17-10.68,10.93-14.12,23.5a5.7,5.7,0,0,1-1.1,2.34c1.71-11.84,3.88-23.41,5-35.58,1.63-17.38,6.19-25.39,12.58-29.39q12.59-7.88,25.15-16c17.37-11.3,34.06-26.66,49-52.16,4.07-6.94,7.91-14.69,11.85-22.07Z"/><path class="cls-3" d="M239.61,193.33c2.81-11.08,5.57-22.25,8.46-33.2,1.32-5,3.61-6.39,5.78-6.76,6.24-1.06,12.49-1.79,18.74-2.23,15.38-1.09,30.58-4.75,45.06-19,3-2.92,5.82-6.53,8.73-9.82l1.9-2.17.38,1.11c-2.36,6.41-4.59,13.13-7.09,19.18-8.18,19.85-17.59,34.38-28.89,40.35-7.52,4-15.12,2.52-22.71,1.79-5-.48-10-1.31-15-1.78C249.29,180.26,244.05,183.5,239.61,193.33Z"/><path class="cls-3" d="M237,213.58c1.95-5.29,4.07-12.34,6.73-17.71a4.05,4.05,0,0,1,5.29-2c4.34,1.56,8.63,4.1,12.93,6.38,12.31,6.5,24.63,9.28,37.3.66a15.78,15.78,0,0,1-.51,2.07c-8.29,15.84-17.5,26.35-28.08,23.74-6.29-1.55-12.43-7-18.62-10.76-1.87-1.14-3.71-2.6-5.57-3.95C243,209.46,239.64,209.81,237,213.58Z"/></g><g id="H9WMDd.tif-2" data-name="H9WMDd.tif"><path class="cls-3" d="M9,37.63C18.24,70.32,29.89,96,45.46,107.42c9.16,6.72,18.72,10.08,28.12,14.78,5.09,2.55,10.23,4.45,15.31,7.17,5.9,3.17,10.68,10.93,14.12,23.5a5.7,5.7,0,0,0,1.1,2.34c-1.71-11.84-3.88-23.41-5-35.58-1.63-17.38-6.19-25.39-12.58-29.39q-12.59-7.88-25.15-16C44,62.94,27.3,47.57,12.36,22.07,8.3,15.14,4.46,7.38.51,0L0,.83C3,13.13,5.73,25.88,9,37.63ZM102.8,159.12c-1.32-5-3.61-6.39-5.78-6.76-6.24-1.06-12.49-1.79-18.74-2.23-15.38-1.09-30.58-4.75-45.06-19-3-2.92-5.82-6.53-8.73-9.82l-1.9-2.17-.38,1.11c2.36,6.41,4.59,13.13,7.09,19.18,8.18,19.85,17.59,34.38,28.89,40.35,7.52,4,15.12,2.52,22.71,1.79,5-.48,10-1.31,15-1.78,5.73-.54,11,2.71,15.41,12.53C108.45,181.25,105.69,170.08,102.8,159.12Zm4.34,35.74a4.05,4.05,0,0,0-5.29-2c-4.34,1.56-8.63,4.1-12.93,6.38-12.31,6.5-24.63,9.28-37.3.66a15.78,15.78,0,0,0,.51,2.07c8.29,15.84,17.5,26.35,28.08,23.74,6.29-1.55,12.43-7,18.62-10.76,1.87-1.14,3.71-2.6,5.57-3.95,3.46-2.52,6.83-2.17,9.46,1.6C111.93,207.29,109.81,200.24,107.14,194.87Z"/><path class="cls-3" d="M0,.83c3,12.3,5.73,25.06,9,36.8C18.24,70.32,29.89,96,45.46,107.42c9.16,6.72,18.72,10.08,28.12,14.78,5.09,2.55,10.23,4.45,15.31,7.17,5.9,3.17,10.68,10.93,14.12,23.5a5.7,5.7,0,0,0,1.1,2.34c-1.71-11.84-3.88-23.41-5-35.58-1.63-17.38-6.19-25.39-12.58-29.39q-12.59-7.88-25.15-16C44,62.94,27.3,47.57,12.36,22.07,8.3,15.14,4.46,7.38.51,0Z"/><path class="cls-3" d="M111.26,192.33c-2.81-11.08-5.57-22.25-8.46-33.2-1.32-5-3.61-6.39-5.78-6.76-6.24-1.06-12.49-1.79-18.74-2.23-15.38-1.09-30.58-4.75-45.06-19-3-2.92-5.82-6.53-8.73-9.82l-1.9-2.17-.38,1.11c2.36,6.41,4.59,13.13,7.09,19.18,8.18,19.85,17.59,34.38,28.89,40.35,7.52,4,15.12,2.52,22.71,1.79,5-.48,10-1.31,15-1.78C101.58,179.26,106.82,182.5,111.26,192.33Z"/><path class="cls-3" d="M113.87,212.58c-1.95-5.29-4.07-12.34-6.73-17.71a4.05,4.05,0,0,0-5.29-2c-4.34,1.56-8.63,4.1-12.93,6.38-12.31,6.5-24.63,9.28-37.3.66a15.78,15.78,0,0,0,.51,2.07c8.29,15.84,17.5,26.35,28.08,23.74,6.29-1.55,12.43-7,18.62-10.76,1.87-1.14,3.71-2.6,5.57-3.95C107.87,208.46,111.23,208.81,113.87,212.58Z"/></g><path class="cls-4" d="M169.94,46.13c.48.18.8.29,1.11.43a5.34,5.34,0,1,1-7.37,4.12c.12-.64-.08-.87-.63-1.07-3.24-1.16-6.46-2.36-9.69-3.54-.22-.08-.45-.12-.78-.2.1.27.14.41.21.54,2.84,5.65,5.69,11.3,8.5,17,.29.58.7.59,1.21.59q14.85,0,29.71,0a1.42,1.42,0,0,0,1.47-.94c2.66-5.36,5.35-10.7,8-16.05.17-.34.32-.69.57-1.22l-11.23,4.13c.36,3.71-1.13,6.17-4,6.8a5.38,5.38,0,0,1-6.26-3.58c-.94-2.85.43-5.27,4-7L177.34,39Z"/><path class="cls-3" d="M169.94,46.13l7.4-7.17,7.4,7.17c-3.56,1.7-4.94,4.13-4,7A5.38,5.38,0,0,0,187,56.68c2.91-.63,4.4-3.09,4-6.8l11.23-4.13c-.25.53-.4.88-.57,1.22-2.68,5.35-5.38,10.69-8,16.05a1.42,1.42,0,0,1-1.47.94q-14.85,0-29.71,0c-.51,0-.92,0-1.21-.59-2.81-5.66-5.66-11.31-8.5-17-.07-.13-.11-.28-.21-.54.33.09.56.12.78.2,3.23,1.18,6.45,2.37,9.69,3.54.56.2.75.43.63,1.07a5.34,5.34,0,1,0,7.37-4.12C170.74,46.43,170.42,46.32,169.94,46.13Z"/><path class="cls-3" d="M193.14,68.07v4.12c-.29,0-.59,0-.89,0q-14.8,0-29.61,0c-.82,0-1.1-.22-1-1,.07-1,0-2,0-3.14Z"/></g></g></svg>