<?xml version="1.0" encoding="UTF-8" standalone="no"?>
<svg
   xmlns:dc="http://purl.org/dc/elements/1.1/"
   xmlns:cc="http://creativecommons.org/ns#"
   xmlns:rdf="http://www.w3.org/1999/02/22-rdf-syntax-ns#"
   xmlns:svg="http://www.w3.org/2000/svg"
   xmlns="http://www.w3.org/2000/svg"
   xmlns:sodipodi="http://sodipodi.sourceforge.net/DTD/sodipodi-0.dtd"
   xmlns:inkscape="http://www.inkscape.org/namespaces/inkscape"
   version="1.1"
   x="0"
   y="0"
   width="603"
   height="392"
   viewBox="0, 0, 603, 392"
   id="svg9270"
   sodipodi:docname="spilledbeer.svg"
   inkscape:version="0.92.1 r15371">
  <metadata
     id="metadata9276">
    <rdf:RDF>
      <cc:Work
         rdf:about="">
        <dc:format>image/svg+xml</dc:format>
        <dc:type
           rdf:resource="http://purl.org/dc/dcmitype/StillImage" />
      </cc:Work>
    </rdf:RDF>
  </metadata>
  <defs
     id="defs9274" />
  <sodipodi:namedview
     pagecolor="#ffffff"
     bordercolor="#666666"
     borderopacity="1"
     objecttolerance="10"
     gridtolerance="10"
     guidetolerance="10"
     inkscape:pageopacity="0"
     inkscape:pageshadow="2"
     inkscape:window-width="1366"
     inkscape:window-height="706"
     id="namedview9272"
     showgrid="false"
     inkscape:zoom="0.68921901"
     inkscape:cx="301.5"
     inkscape:cy="196"
     inkscape:window-x="-8"
     inkscape:window-y="-8"
     inkscape:window-maximized="1"
     inkscape:current-layer="svg9270" />
  <g
     id="g9909">
    <g
       id="Layer_1">
      <path
         d="m 255.003,295.131 c 138.08,0 250.7,-28.116 250.7,-62.591 0,-34.475 -112.62,-62.592 -250.7,-62.592 C 116.92,169.948 4.3,198.065 4.3,232.54 c 0,34.474 112.62,62.591 250.703,62.591"
         id="path9223"
         style="opacity:0.31300001;fill:#969696;fill-opacity:1"
         inkscape:connector-curvature="0" />
      <path
         d="m 435.083,384.985 c -12.197,1.117 -80.842,7.114 -90.975,2.554 -19.814,-8.915 27.362,-30.142 -62.865,-43.751 -41.596,-6.275 -72.865,-8.361 -114.515,-10.247 -19.633,-0.888 -76.368,-0.968 -80.92,-24.33 l -0.382,-4.654 c -0.504,-31.493 39.756,-35.551 64.1,-39.142 47.672,-7.031 86.205,-8.067 133.773,-9.367 39.588,-1.083 67.741,-8.915 17.567,-35.77 l -3.571,-1.91 c -7.771,-4.036 -41.998,-18.432 -26.66,-28.099 23.898,-15.064 98.824,-16.636 126.586,-15.562 51.433,2.189 146.932,15.476 190.048,41.642 55.901,33.923 -79.131,43.632 -94.631,46.149 -9.187,1.492 -57.086,9.744 -32.514,27.237 19.982,14.223 105.422,26.176 109.619,50.367 4.792,27.637 -113.78,42.802 -134.66,44.883"
         id="path9225"
         style="fill:#d1ad5a;fill-opacity:1"
         inkscape:connector-curvature="0" />
      <path
         fill="#B14F2D"
         style="fill:#a9883c;fill-opacity:1"
         id="path9229"
         d="M316.676,229.867 C312.643,226.977 307.429,223.793 300.866,220.278 L297.295,218.368 C289.524,214.332 255.297,199.936 270.635,190.269 C294.533,175.205 369.459,173.633 397.221,174.707 C399.132,174.788 401.112,174.887 403.14,174.999 L403.14,195.77 C403.141,214.524 387.795,229.867 369.042,229.867 L316.676,229.867" />
      <path
         fill="#E46C2A"
         style="fill:#2af619;fill-opacity:1"
         id="path9231"
         d="M64.448,214.543 C29.959,214.543 2,166.855 2,108.031 C2,49.208 29.959,1.52 64.448,1.52 L64.448,1.519 L372.874,1.519 C391.629,1.519 406.972,16.863 406.972,35.617 L406.972,180.445 C406.972,199.199 391.629,214.543 372.874,214.543 L64.448,214.543" />
      <path
         fill="#E87F3E"
         style="fill:#48e83e;fill-opacity:1"
         id="path9233"
         d="M276.873,8.617 L64.448,8.618 C62.713,8.618 60.981,8.768 59.271,9.064 C50.904,10.515 43.646,15.282 37.611,21.428 C33.249,25.87 31.151,31.322 31.408,37.542 C31.663,43.766 34.202,49.024 38.916,53.095 C39.989,54.021 41.126,54.947 42.331,55.87 C53.097,64.127 94.361,49.708 126.872,55.07 C173.325,62.734 169.06,102.869 223.653,82.077 C255.711,69.867 310.277,27.029 276.873,8.618 L276.873,8.617" />
      <path
         fill="#ED985E"
         style="fill:#5eed78;fill-opacity:1"
         id="path9235"
         d="M228.245,16.062 L64.448,16.062 C63.601,16.062 62.752,16.136 61.919,16.281 C56.791,17.17 52.221,20.611 48.664,24.234 C47.313,25.612 46.804,26.929 46.883,28.858 C46.963,30.8 47.569,32.054 49.038,33.323 C49.612,33.817 50.195,34.3 50.784,34.772 C54.655,35.477 64.511,34.306 67.881,33.924 C79.39,32.621 90.764,31.025 102.355,30.494 C111.357,30.081 120.486,30.271 129.396,31.741 C143.065,33.996 154.637,38.854 165.914,46.823 C172.292,51.33 178.7,57.473 185.313,61.303 C195.662,67.298 207.699,63.529 218.139,59.554 C224.756,57.035 231.519,53.465 237.821,49.541 C244.786,45.202 247.911,37.08 245.653,29.191 C243.398,21.303 236.449,16.062 228.245,16.062" />
      <path
         fill="#DA5D2A"
         style="fill:#5eda2a;fill-opacity:1"
         id="path9237"
         d="M64.448,214.543 C33.045,214.543 7.059,175.005 2.658,123.527 C4.773,133.369 7.545,141.831 10.862,149.144 C20.71,170.851 41.099,183.989 64.938,183.989 C124.887,183.989 184.836,183.989 244.786,183.989 C256.444,183.989 266.477,179.629 274.432,171.106 C282.386,162.582 286.042,152.271 285.239,140.639 C281.014,79.518 301.707,12.325 361.003,12.345 C324.551,31.704 315.316,72.57 315.95,120.457 C316.684,175.901 348.726,214.416 376.732,214.321 C375.465,214.466 374.178,214.543 372.874,214.543 L64.448,214.543" />
      <path
         fill="#ADADA9"
         id="path9239"
         d="M390.584,204.582 C424.98,204.582 453.035,161.209 453.035,108.031 C453.035,54.854 424.98,11.48 390.583,11.48 C356.188,11.48 328.132,54.854 328.132,108.031 C328.132,161.209 356.188,204.582 390.584,204.582" />
      <path
         fill="#C7C7C2"
         id="path9241"
         d="M412.422,22.06 C437.113,32.026 455.335,66.737 455.335,108.031 C455.335,149.325 437.113,184.037 412.422,194.003 L412.422,196.883 L397.864,196.883 C366.124,196.883 340.395,157.102 340.395,108.031 C340.395,58.96 366.124,19.18 397.864,19.18 L412.422,19.18 L412.422,22.06" />
      <path
         fill="#F4F4F2"
         id="path9243"
         d="M412.422,196.883 C444.077,196.883 469.895,156.969 469.895,108.031 C469.895,59.094 444.077,19.18 412.422,19.18 C380.769,19.18 354.951,59.094 354.951,108.031 C354.951,156.969 380.769,196.883 412.422,196.883" />
      <path
         fill="#ADADA9"
         id="path9245"
         d="M412.422,191.555 C441.142,191.555 464.566,154.035 464.566,108.031 C464.566,62.028 441.142,24.508 412.422,24.508 C383.704,24.508 360.279,62.028 360.279,108.031 C360.279,154.034 383.704,191.555 412.422,191.555" />
      <path
         fill="#E5E5E0"
         id="path9247"
         d="M405.046,190.72 C379.743,184.978 360.279,150.148 360.279,108.031 C360.279,65.914 379.743,31.083 405.046,25.344 C430.351,31.083 449.814,65.914 449.814,108.031 C449.814,150.148 430.352,184.978 405.046,190.72" />
      <path
         fill="#2D2E2C"
         id="path9249"
         d="M402.372,125.175 C412.424,125.175 420.57,145.039 420.57,159.848 C420.57,174.662 412.424,178.813 402.372,178.813 C392.319,178.813 384.171,174.662 384.171,159.848 C384.171,145.039 392.319,125.175 402.372,125.175" />
      <path
         fill="#F8C823"
         id="path9251"
         d="M207.762,50.463 C248.495,50.463 272.074,80.954 272.074,121.687 C272.074,162.42 248.495,197.972 207.762,197.972 C167.031,197.972 124.567,162.42 124.567,121.687 C124.567,80.954 167.031,50.463 207.762,50.463" />
      <path
         fill="#F3B428"
         id="path9253"
         d="M162.627,183.989 L244.786,183.989 C245.444,183.989 246.098,183.976 246.746,183.947 C236.524,192.72 223.411,197.972 207.762,197.972 C192.14,197.972 176.263,192.737 162.627,183.989" />
      <path
         fill="#FADA3C"
         id="path9255"
         d="M156.094,66.909 C175.465,80.277 184.16,97.118 223.653,82.077 C232.097,78.86 242.102,73.518 251.65,67.057 C240.862,56.607 226.041,50.463 207.762,50.463 C189.57,50.463 171.037,56.55 156.094,66.909" />
      <path
         fill="#FDF07F"
         id="path9257"
         d="M177.518,55.891 C180.092,57.896 182.687,59.781 185.313,61.303 C195.662,67.298 207.699,63.529 218.139,59.554 C222.137,58.031 226.192,56.125 230.164,53.988 C223.422,51.694 215.938,50.463 207.762,50.463 C197.558,50.463 187.246,52.379 177.518,55.891" />
      <path
         fill="#E46C2A"
         style="fill:#dab96b;fill-opacity:1"
         id="path9259"
         d="M135.92,306.173 C116.114,289.551 166.428,280.519 175.054,279.279 C211.78,274.006 231.85,273.404 268.572,273.741 C295.726,273.991 305.142,273.124 331.993,268.424 C358.04,263.864 367.895,273.696 389.196,286.243 C403.247,294.519 441.987,319.737 403.22,326.527 C333.929,338.665 266.207,321.668 197.066,319.822 C176.438,319.269 153.228,318.914 135.92,306.173" />
      <g
         aria-label="BEER"
         style="font-style:normal;font-variant:normal;font-weight:normal;font-stretch:normal;font-size:40px;line-height:1.25;font-family:HGSoeiKakupoptai;-inkscape-font-specification:HGSoeiKakupoptai;letter-spacing:0px;word-spacing:0px;fill:#000000;fill-opacity:1;stroke:none;opacity:0.771"
         id="text9823"
         transform="matrix(0,1.4187017,-1.8499458,0,658.10785,-52.114254)">
        <path
           inkscape:connector-curvature="0"
           id="path9825"
           d="m 87.992554,260.89285 c 0.508786,-10.2398 0.65001,-20.50924 1.775713,-30.7085 3.366531,-2.0375 7.453068,-0.76618 11.088303,-1.72643 3.54042,0.13017 6.06908,3.98482 5.42397,7.33066 1.02445,3.3308 -4.59301,6.07519 -2.136,9.05932 2.25012,2.26637 3.21172,5.91567 1.56566,8.79362 -1.88577,4.82088 -7.300804,7.32317 -12.265627,6.97935 -1.816867,0.10011 -3.63825,0.11746 -5.452019,0.27198 z m 5.78125,-6.25 c 3.204205,0.90583 7.474366,-2.74065 5.378929,-5.96081 -2.666802,-3.06956 -7.166192,1.05383 -5.261348,4.25988 -0.04152,0.56615 -0.203719,1.13046 -0.117581,1.70093 z m 0.46875,-11.25 c 2.985773,-1.23343 5.854366,-4.15589 5.322266,-7.62695 -2.31909,-3.44508 -6.938341,1.22433 -5.066377,4.17243 -0.0853,1.15151 -0.170593,2.30301 -0.255889,3.45452 z"
           style="font-weight:bold" />
        <path
           inkscape:connector-curvature="0"
           id="path9827"
           d="m 108.1488,260.89285 c 0.6254,-10.52768 1.35476,-21.04919 2.1875,-31.5625 5.15625,-0.26042 10.3125,-0.52083 15.46875,-0.78125 -0.15625,1.92708 -0.3125,3.85417 -0.46875,5.78125 -3.38542,0.26042 -6.77083,0.52083 -10.15625,0.78125 -0.15625,2.70833 -0.3125,5.41667 -0.46875,8.125 2.76042,-0.15625 5.52083,-0.3125 8.28125,-0.46875 1.30955,2.83984 -1.22964,7.28008 -4.60296,6.13453 -3.15804,-1.84244 -5.97075,4.78911 -2.01022,5.25371 2.85267,0.22398 6.76055,-2.07217 8.67743,1.0978 1.30516,3.03093 -2.45701,5.72696 -5.25328,4.95897 -3.90104,-0.26329 -7.75971,0.5925 -11.65472,0.67999 z"
           style="font-weight:bold" />
        <path
           inkscape:connector-curvature="0"
           id="path9829"
           d="m 128.1488,260.89285 c 0.6254,-10.52768 1.35476,-21.04919 2.1875,-31.5625 5.15625,-0.26042 10.3125,-0.52083 15.46875,-0.78125 -0.15625,1.92708 -0.3125,3.85417 -0.46875,5.78125 -3.38542,0.26042 -6.77083,0.52083 -10.15625,0.78125 -0.15625,2.70833 -0.3125,5.41667 -0.46875,8.125 2.76042,-0.15625 5.52083,-0.3125 8.28125,-0.46875 1.30955,2.83984 -1.22964,7.28008 -4.60296,6.13453 -3.15804,-1.84244 -5.97075,4.78911 -2.01022,5.25371 2.85267,0.22398 6.76055,-2.07217 8.67743,1.0978 1.30516,3.03093 -2.45701,5.72696 -5.25328,4.95897 -3.90104,-0.26329 -7.75971,0.5925 -11.65472,0.67999 z"
           style="font-weight:bold" />
        <path
           inkscape:connector-curvature="0"
           id="path9831"
           d="m 148.1488,260.7366 c 0.52083,-10.36458 1.04167,-20.72917 1.5625,-31.09375 4.30617,-0.59773 9.16833,-2.01508 13.12049,0.56346 3.5973,3.20688 3.37949,8.72907 1.73657,12.87271 -2.14782,1.96089 -4.24847,5.38431 -2.33578,8.17598 2.03911,1.73536 3.82406,4.75912 2.33254,7.39598 -1.95291,3.02269 -5.82534,0.69258 -5.65804,-2.45634 -0.69783,-2.06648 -1.31795,-6.2202 -4.25837,-5.68374 -2.41962,2.11186 -0.76666,5.41784 -0.90956,8.09073 -0.39291,2.78596 -3.58847,2.32563 -5.59035,2.13497 z m 5.625,-15.625 c 4.00142,-0.97621 7.63595,-5.16216 6.4312,-9.42837 -1.6975,-3.27954 -7.3832,-0.5497 -6.21233,2.82663 0.52977,2.1566 -0.28935,4.40728 -0.21887,6.60174 z"
           style="font-weight:bold" />
      </g>
      <path
         fill="#E87F3E"
         style="fill:#ebcb7d;fill-opacity:1"
         id="path9261"
         d="M364.116,300.072 C361.706,306.288 348.815,308.428 342.664,310.588 C320.073,318.525 236.271,321.426 216.006,309.686 C181.232,289.546 322.715,282.427 327.114,282.295 C339.876,281.915 353.675,282.936 362.226,293.988 C363.977,296.253 364.263,297.343 364.116,300.072" />
      <path
         fill="#E46C2A"
         style="fill:#dab96b;fill-opacity:1"
         id="path9263"
         d="M562.435,223.57 C554.59,250.502 478.72,237.019 459.028,231.755 C424.649,222.564 438.478,205.776 467.6,201.887 C483.177,199.805 560.706,197.507 562.482,221.174 L562.435,223.57" />
      <path
         fill="#DA5D2A"
         style="fill:#bb9640;fill-opacity:1"
         id="path9265"
         d="M398.944,178.636 C413.444,188.654 418.119,211.078 412.549,231.88 C407.184,251.913 499.68,240.436 479.42,235.999 C455.801,230.826 458.524,185.658 416.208,173.944 C410.461,172.355 394.041,175.245 398.944,178.636" />
      <path
         fill="#E87F3E"
         style="fill:#ebcb7d;fill-opacity:1"
         id="path9267"
         d="M529.393,216.573 C525.286,230.674 485.562,223.613 475.252,220.858 C457.253,216.046 464.491,207.256 479.739,205.219 C487.896,204.13 528.489,202.927 529.417,215.318 L529.393,216.573" />
    </g>
  </g>
</svg>
